<?xml version="1.0" encoding="utf-8"?>
<!-- Generator: Adobe Illustrator 15.0.0, SVG Export Plug-In . SVG Version: 6.00 Build 0)  -->
<!DOCTYPE svg PUBLIC "-//W3C//DTD SVG 1.1//EN" "http://www.w3.org/Graphics/SVG/1.1/DTD/svg11.dtd">
<svg version="1.1" id="Layer_2_copy" xmlns="http://www.w3.org/2000/svg" xmlns:xlink="http://www.w3.org/1999/xlink" x="0px"
	 y="0px" width="1200px" height="1000px" viewBox="0 0 1200 1000" enable-background="new 0 0 1200 1000" xml:space="preserve">
<g>
	<g>
		<path fill="#FFFFFF" d="M474.163,554.195c-0.031,1-0.094,1.987-0.094,2.999c0,32.176,9.679,52.323,27.491,64.78
			c-44.515,3.16-54.642,10.832-54.642,28.564c0,47.047,52.432,72.404,153.685,72.404c101.254,0,152.878-22.978,152.878-72.404
			c0-17.146-10.914-24.898-52.693-28.252c16.61-12.264,25.542-32.364,25.542-65.093c0-1.017-0.068-2.012-0.104-3.019
			c74.188,121.436,142.031,8.933,142.031,8.933s-20.938-9.767-67.716-7.428c-47.376,2.623-66.146-11.286-73.578-22.228
			c149.465-34.952,118.665-146.35,113.487-184.667c-4.024-29.788-40.456-61.593-40.456-0.339c0,55.262-1.065,82.458-22.749,81.99
			c-22.515-0.486-7.771-40.271-37.477-40.271c-29.703,0-5.119,51.062-39.447,51.062s-8.644-40.614-41.003-40.614
			c-32.36,0,3.062,75.463-40.462,75.463h-37.942c-43.526,0-8.102-75.463-40.462-75.463s-6.675,40.614-41.003,40.614
			s-9.744-51.062-39.448-51.062c-29.705,0-14.961,39.784-37.476,40.271c-21.684,0.468-22.75-26.729-22.75-81.99
			c0-61.253-36.433-29.449-40.456,0.339c-5.186,38.362-36.041,149.974,114.031,184.786c-7.486,10.923-26.288,24.721-73.491,22.107
			c-46.777-2.339-67.717,7.428-67.717,7.428S399.98,675.6,474.163,554.195z M636.889,573.128c0-15.552,8.202-47.309,23.754-47.309
			s23.754,31.757,23.754,47.309c0,15.553,4.336,34.096-23.754,33.196C635.531,605.525,636.889,588.682,636.889,573.128z
			 M516.006,573.128c0-15.552,8.201-47.309,23.753-47.309c15.553,0,23.752,31.757,23.752,47.309
			c0,15.553,4.338,34.096-23.752,33.196C514.646,605.525,516.006,588.682,516.006,573.128z M466,319.15
			c5.635-0.156,9.94-0.283,13.451-0.4c0.176,5.107,0.445,11.045,0.851,18.241c1.027,18.232,8.824,28.072,19.312,27.576
			c14.831-0.701,17.396-13.347,19.312-26.783c0.607-4.258,0.971-10.976,1.193-18.835c4.186,0.114,8.332,0.204,12.307,0.258
			c21.412,0.295,30.091-4.351,30.091-21.647c0-16.069-11.242-20.521-29.979-20.001c-4.894,0.135-8.767,0.249-12.006,0.353
			c0.019-4.626,0.046-8.976,0.099-12.79c0.295-21.412-4.351-30.092-21.647-30.092c-16.069,0-20.521,11.244-20.001,29.979
			c0.137,4.898,0.202,9.036,0.236,12.772c-4.459-0.126-8.877-0.221-13.105-0.279c-21.411-0.295-30.091,4.351-30.091,21.647
			C436.021,315.218,447.265,319.67,466,319.15z M646.498,320.41c30.975-0.858,53.192,0.838,91.5-1.32
			c18.23-1.027,28.07-8.824,27.576-19.312c-0.701-14.832-13.349-17.396-26.784-19.312c-13.435-1.916-70.769-1.41-92.181-1.706
			c-21.411-0.295-30.091,4.35-30.091,21.647C616.52,316.478,627.763,320.929,646.498,320.41z M597.154,860.676
			c-9.04,0-16.085,3.428-21.131,10.282c-5.051,6.858-7.571,16.159-7.571,27.911c0,11.904,2.521,21.322,7.571,28.25
			c5.046,6.932,12.091,10.396,21.131,10.396c9.041,0,16.082-3.465,21.131-10.396c5.046-6.928,7.57-16.346,7.57-28.25
			c0-11.752-2.524-21.053-7.57-27.911C613.235,864.104,606.194,860.676,597.154,860.676z M955.243,867.795
			c-2.034-2.485-4.521-4.442-7.458-5.876c-2.938-1.43-6.441-2.146-10.509-2.146c-4.222,0-7.91,0.791-11.074,2.373
			c-3.164,1.58-5.841,3.652-8.023,6.215c-2.186,2.562-3.881,5.502-5.085,8.812c-1.207,3.315-2.033,6.706-2.483,10.171h50.849v-0.001
			c0-3.766-0.529-7.346-1.582-10.734C958.82,873.219,957.277,870.281,955.243,867.795z M0,0v1000h1200V0H0z M600.5,160.206
			c176.886,0,320.28,143.38,320.28,320.248S777.385,800.702,600.5,800.702s-320.28-143.38-320.28-320.248
			S423.614,160.206,600.5,160.206z M377.999,951.223c0,7.29-5.911,10.268-13.199,10.269c-7.291,0-13.2-2.979-13.2-10.269h0.033
			V894.12c0-11.909-1.454-20.519-4.357-25.821c-2.907-5.301-9.854-7.954-18.134-7.954c-4.215,0-9.562,0.692-13.339,2.07
			c-3.777,1.382-5.935,2.723-7.819,4.031c1.159,3.633,1.96,7.482,2.396,11.549c0.437,4.069,0.654,8.428,0.654,13.075v60.153h0.016
			c0,7.288-5.908,10.268-13.2,10.268c-7.29,0-13.199-2.979-13.199-10.268h0.017V894.12c0-11.91-1.49-20.517-4.467-25.822
			c-2.979-5.3-10.567-7.953-18.701-7.953c-2.907,0-7.455,0.22-10.941,0.654c-3.486,0.435-6.101,0.799-7.844,1.089v89.133h0.033
			c0,7.289-5.909,10.269-13.2,10.269c-7.288,0-13.199-2.979-13.199-10.269V843.784c5.084-1.45,11.73-2.832,19.938-4.141
			c8.206-1.309,18.242-1.962,27.394-1.962c7.844,0,16.303,1.021,21.315,3.053c5.011,2.035,9.185,4.723,12.529,8.062
			c1.597-1.162,3.63-2.396,6.102-3.705c2.467-1.309,5.229-2.507,8.279-3.596s6.958-1.995,10.373-2.724
			c3.411-0.727,6.863-1.092,10.351-1.092c8.858,0,17.512,1.273,23.253,3.814c5.736,2.543,10.241,6.102,13.509,10.678
			c3.271,4.577,5.521,10.098,6.756,16.562c1.232,6.466,1.854,13.547,1.854,21.244L377.999,951.223L377.999,951.223z
			 M514.665,924.407c-2.712,7.684-6.554,14.236-11.526,19.661c-4.972,5.425-10.961,9.645-17.967,12.654
			c-7.006,3.015-14.729,4.521-23.165,4.521c-8.438,0-16.124-1.508-23.052-4.521c-6.932-3.012-12.882-7.229-17.854-12.654
			c-4.972-5.425-8.853-11.979-11.639-19.661c-2.79-7.687-4.181-16.194-4.181-25.538c0-9.34,1.391-17.815,4.181-25.426
			c2.786-7.605,6.703-14.125,11.752-19.551c5.046-5.424,11.035-9.604,17.967-12.543c6.93-2.938,14.538-4.404,22.826-4.404
			c8.284,0,15.935,1.469,22.939,4.404c7.006,2.938,12.995,7.119,17.967,12.543c4.972,5.426,8.849,11.943,11.639,19.551
			c2.787,7.609,4.183,16.086,4.183,25.426C518.733,908.213,517.377,916.723,514.665,924.407z M649.812,924.407
			c-2.714,7.684-6.556,14.236-11.525,19.661c-4.972,5.425-10.961,9.645-17.967,12.654c-7.006,3.015-14.729,4.521-23.166,4.521
			c-8.44,0-16.124-1.508-23.054-4.521c-6.932-3.012-12.882-7.229-17.854-12.654s-8.854-11.979-11.639-19.661
			c-2.79-7.687-4.183-16.194-4.183-25.538c0-9.34,1.393-17.815,4.183-25.426c2.784-7.605,6.702-14.125,11.752-19.551
			c5.046-5.424,11.034-9.604,17.967-12.543c6.928-2.938,14.538-4.404,22.826-4.404c8.284,0,15.933,1.469,22.938,4.404
			c7.006,2.938,12.995,7.119,17.968,12.543c4.974,5.426,8.851,11.943,11.641,19.551c2.785,7.609,4.18,16.086,4.18,25.426
			C653.88,908.213,652.525,916.723,649.812,924.407z M747.33,952.318c-8.361,5.798-20.305,8.7-35.82,8.7
			c-10.396,0-16.464-0.301-22.792-2.029c-6.328-1.73-7.53-2.066-10.091-3.122c-5.665-1.988-6.904-7.911-5.598-14.213
			c1.305-6.302,4.678-10.598,10.343-8.613c4.067,1.659,5.565,2.146,11.216,3.651c5.65,1.508,9.915,1.727,17.146,1.727
			c7.23,0,12.504-0.865,15.818-2.599c3.312-1.73,4.974-4.707,4.974-8.93c0-3.916-1.772-7.152-5.312-9.717
			c-3.542-2.561-9.379-5.348-17.516-8.362c-4.974-1.809-9.53-3.729-13.673-5.763c-4.146-2.035-7.725-4.408-10.734-7.119
			c-3.016-2.713-5.389-5.988-7.119-9.832c-1.732-3.842-2.6-8.549-2.6-14.125c0-10.848,3.99-19.396,11.979-25.648
			c7.984-6.25,18.832-9.379,32.544-9.379c6.93,0,10.942,0.16,17.271,1.438c6.328,1.282,9.688,1.896,12.853,3.1
			c5.686,1.995,6.633,7.687,4.937,13.699c-1.695,6.016-5.394,10.076-11.075,8.083c0,0-2.79-1.248-8.972-2.732
			c-4.673-1.124-7.479-1.214-13.655-1.214c-5.575,0-10.096,0.941-13.562,2.825c-3.468,1.886-5.196,4.783-5.196,8.7
			c0,1.959,0.339,3.693,1.018,5.197c0.678,1.508,1.843,2.902,3.503,4.182c1.656,1.281,3.842,2.562,6.556,3.844
			c2.712,1.279,6.022,2.599,9.942,3.955c6.478,2.41,11.979,4.782,16.498,7.117c4.521,2.337,8.249,4.973,11.188,7.91
			c2.938,2.938,5.085,6.292,6.439,10.059c1.355,3.768,2.034,8.286,2.034,13.56C759.874,937.967,755.692,946.521,747.33,952.318z
			 M850.608,952.318c-8.361,5.798-20.307,8.7-35.82,8.7c-10.396,0-16.464-0.301-22.792-2.029c-6.328-1.73-7.531-2.066-10.091-3.122
			c-5.665-1.988-6.904-7.911-5.6-14.213c1.307-6.302,4.68-10.598,10.345-8.613c4.065,1.659,5.564,2.146,11.216,3.651
			c5.648,1.508,9.915,1.727,17.146,1.727c7.232,0,12.504-0.865,15.82-2.599c3.312-1.73,4.972-4.707,4.972-8.93
			c0-3.916-1.771-7.152-5.311-9.717c-3.542-2.561-9.379-5.348-17.518-8.362c-4.972-1.809-9.528-3.729-13.673-5.763
			c-4.146-2.035-7.723-4.408-10.732-7.119c-3.018-2.713-5.391-5.988-7.119-9.832c-1.734-3.842-2.601-8.549-2.601-14.125
			c0-10.848,3.989-19.396,11.979-25.648c7.984-6.25,18.832-9.379,32.544-9.379c6.928,0,10.942,0.16,17.271,1.438
			c6.327,1.282,9.688,1.896,12.854,3.1c5.684,1.995,6.631,7.687,4.936,13.699c-1.694,6.016-5.393,10.076-11.074,8.083
			c0,0-2.79-1.248-8.974-2.732c-4.673-1.124-7.479-1.214-13.653-1.214c-5.575,0-10.098,0.941-13.562,2.825
			c-3.468,1.886-5.198,4.783-5.198,8.7c0,1.959,0.341,3.693,1.02,5.197c0.678,1.508,1.843,2.902,3.503,4.182
			c1.656,1.281,3.842,2.562,6.554,3.844c2.712,1.28,6.024,2.599,9.944,3.955c6.476,2.41,11.978,4.782,16.498,7.117
			c4.52,2.337,8.249,4.973,11.187,7.91c2.938,2.938,5.085,6.292,6.441,10.059c1.354,3.768,2.034,8.286,2.034,13.56
			C863.152,937.967,858.97,946.521,850.608,952.318z M988.693,902.371c-0.078,1.886-0.19,3.581-0.341,5.085h-77.971
			c0.753,9.492,4.104,16.837,10.06,22.035c5.948,5.195,14.575,7.797,25.877,7.797c6.626,0.001,15.421-0.712,24.612-3.446
			c5.552-1.941,8.854,2.269,10.136,8.438c1.278,6.174-0.019,12.265-5.483,13.925c-3.868,1.175-6.327,1.764-9.717,2.439
			c-3.391,0.679-7.045,1.242-10.961,1.694c-3.92,0.452-7.91,0.679-11.979,0.679c-10.396,0-19.436-1.547-27.119-4.633
			c-7.685-3.087-14.013-7.381-18.982-12.883c-4.974-5.498-8.666-11.979-11.074-19.436c-2.412-7.459-3.616-15.631-3.616-24.521
			c0-10.396,1.544-19.51,4.634-27.346c3.086-7.832,7.192-14.354,12.316-19.549c5.12-5.198,10.996-9.114,17.628-11.754
			c6.628-2.635,13.408-3.953,20.34-3.953c16.272,0,28.964,5.049,38.081,15.142c9.114,10.097,13.673,25.164,13.673,45.2
			C988.805,898.794,988.767,900.489,988.693,902.371z M462.007,860.676c-9.04,0-16.085,3.428-21.131,10.282
			c-5.049,6.858-7.571,16.159-7.571,27.911c0,11.904,2.521,21.322,7.571,28.25c5.046,6.932,12.091,10.396,21.131,10.396
			s16.081-3.465,21.131-10.396c5.047-6.928,7.571-16.346,7.571-28.25c0-11.752-2.525-21.053-7.571-27.911
			C478.088,864.104,471.047,860.676,462.007,860.676z"/>
	</g>
</g>
</svg>
