<?xml version="1.0" encoding="utf-8"?>
<!-- Generator: Adobe Illustrator 15.0.0, SVG Export Plug-In . SVG Version: 6.00 Build 0)  -->
<!DOCTYPE svg PUBLIC "-//W3C//DTD SVG 1.1//EN" "http://www.w3.org/Graphics/SVG/1.1/DTD/svg11.dtd">
<svg version="1.1" id="Layer_2_copy" xmlns="http://www.w3.org/2000/svg" xmlns:xlink="http://www.w3.org/1999/xlink" x="0px"
	 y="0px" width="16px" height="16px" viewBox="0 0 16 16" enable-background="new 0 0 16 16" xml:space="preserve">
<g>
	<path fill-rule="evenodd" clip-rule="evenodd" d="M11.669,9.572c0.213,0.313,0.753,0.712,2.113,0.638
		c1.344-0.067,1.945,0.213,1.945,0.213s-1.948,3.23-4.08-0.256c0.001,0.027,0.003,0.058,0.003,0.086c0,0.94-0.256,1.517-0.733,1.87
		c1.199,0.096,1.514,0.318,1.514,0.812c0,1.419-1.482,2.079-4.391,2.079c-2.908,0-4.414-0.729-4.414-2.079
		c0-0.51,0.292-0.729,1.569-0.82c-0.511-0.358-0.79-0.938-0.79-1.861c0-0.028,0.002-0.059,0.003-0.086
		c-2.131,3.486-4.079,0.256-4.079,0.256s0.602-0.28,1.945-0.213c1.355,0.074,1.896-0.321,2.111-0.635
		C0.074,8.576,0.96,5.369,1.109,4.268c0.116-0.856,1.162-1.769,1.162-0.01c0,1.587,0.031,2.369,0.654,2.354
		C3.572,6.6,3.149,5.456,4.001,5.456c0.854,0,0.147,1.466,1.133,1.466c0.987,0,0.249-1.167,1.178-1.167
		c0.929,0-0.088,2.167,1.162,2.167c0.32,0,0.465,0,0.525,0c0.028,0,0.039,0,0.039,0c0.061,0,0.206,0,0.525,0
		c1.251,0,0.234-2.167,1.163-2.167s0.191,1.167,1.178,1.167c0.985,0,0.279-1.466,1.132-1.466c0.854,0,0.43,1.144,1.077,1.156
		c0.623,0.015,0.652-0.768,0.652-2.354c0-1.759,1.048-0.846,1.162,0.01C15.078,5.368,15.962,8.566,11.669,9.572z M6.975,10.711
		c0-0.447-0.236-1.357-0.683-1.357c-0.447,0-0.682,0.91-0.682,1.357c0,0.446-0.039,0.93,0.682,0.952
		C7.099,11.69,6.975,11.157,6.975,10.711z M10.446,10.711c0-0.447-0.236-1.357-0.683-1.357s-0.682,0.91-0.682,1.357
		c0,0.446-0.039,0.93,0.682,0.952C10.571,11.69,10.446,11.157,10.446,10.711z M11.986,3.415c-1.102,0.062-1.738,0.013-2.628,0.038
		C8.819,3.467,8.497,3.339,8.497,2.878c0-0.498,0.249-0.631,0.863-0.623c0.616,0.009,2.264-0.006,2.648,0.049
		c0.387,0.056,0.749,0.128,0.77,0.555C12.791,3.16,12.51,3.385,11.986,3.415z M6.082,3.418C5.968,3.416,5.849,3.414,5.728,3.411
		c-0.006,0.226-0.017,0.417-0.034,0.54C5.639,4.338,5.565,4.7,5.139,4.721C4.838,4.735,4.614,4.453,4.584,3.929
		C4.573,3.721,4.565,3.551,4.56,3.405C4.459,3.408,4.335,3.412,4.174,3.416C3.636,3.431,3.313,3.303,3.313,2.841
		c0-0.496,0.249-0.63,0.864-0.621c0.122,0.001,0.249,0.004,0.377,0.008C4.552,2.121,4.551,2.002,4.547,1.861
		C4.532,1.324,4.66,1,5.121,1c0.497,0,0.63,0.249,0.622,0.865C5.742,1.974,5.741,2.099,5.74,2.232
		c0.093-0.003,0.204-0.006,0.345-0.011c0.538-0.015,0.861,0.114,0.861,0.574C6.946,3.293,6.697,3.427,6.082,3.418z"/>
</g>
</svg>
